<?xml version="1.0" encoding="UTF-8" standalone="no"?>
<!-- Created with Inkscape (http://www.inkscape.org/) -->

<svg
   width="148.49356mm"
   height="182.95409mm"
   viewBox="0 0 148.49356 182.95409"
   version="1.1"
   id="svg1"
   inkscape:version="1.3.2 (091e20e, 2023-11-25, custom)"
   sodipodi:docname="new.svg"
   xmlns:inkscape="http://www.inkscape.org/namespaces/inkscape"
   xmlns:sodipodi="http://sodipodi.sourceforge.net/DTD/sodipodi-0.dtd"
   xmlns="http://www.w3.org/2000/svg"
   xmlns:svg="http://www.w3.org/2000/svg">
  <sodipodi:namedview
     id="namedview1"
     pagecolor="#ffffff"
     bordercolor="#000000"
     borderopacity="0.25"
     inkscape:showpageshadow="2"
     inkscape:pageopacity="0.0"
     inkscape:pagecheckerboard="0"
     inkscape:deskcolor="#d1d1d1"
     inkscape:document-units="mm"
     inkscape:zoom="0.97890839"
     inkscape:cx="270.7097"
     inkscape:cy="330.47015"
     inkscape:window-width="1920"
     inkscape:window-height="991"
     inkscape:window-x="-9"
     inkscape:window-y="-9"
     inkscape:window-maximized="1"
     inkscape:current-layer="layer1" />
  <defs
     id="defs1">
    <clipPath
       clipPathUnits="userSpaceOnUse"
       id="clipPath265">
      <rect
         style="fill:#000000"
         id="rect266"
         width="561.23553"
         height="691.48004"
         x="-1.7999999e-06"
         y="16.944664" />
    </clipPath>
    <mask
       id="b"
       height="74"
       maskUnits="userSpaceOnUse"
       width="53"
       x="147"
       y="184">
      <path
         d="m 156.118,233.725 -1.932,23.686 25.752,-3.201 -1.609,-12.323 c 4.345,-0.64 11.749,-2.401 15.29,-7.202 5.15,-6.882 1.77,-20.805 1.77,-20.805 0,0 5.311,-1.441 4.507,-4.642 -0.966,-3.04 -5.312,-2.56 -5.312,-2.56 -2.092,-7.682 -7.725,-22.406 -7.725,-22.406 l -37.018,7.682 c 0,0 0.804,5.761 1.77,13.283 0.483,3.041 -4.185,6.722 -3.702,10.083 0.483,3.201 6.116,5.922 6.599,8.802 0.644,4.161 1.288,7.522 1.77,9.603 z"
         fill="#ffffff"
         id="path2" />
    </mask>
    <mask
       id="c"
       height="8"
       maskUnits="userSpaceOnUse"
       width="13"
       x="178"
       y="202">
      <path
         d="m 190.237,204.597 c 0,0 -2.415,-3.361 -6.921,-2.08 -4.507,1.28 -4.829,4.321 -4.829,4.321 0,0 2.415,3.361 6.599,2.4 4.185,-0.96 5.151,-4.481 5.151,-4.481 z"
         fill="#ffffff"
         id="path3" />
    </mask>
    <mask
       id="d"
       height="149"
       maskUnits="userSpaceOnUse"
       width="152"
       x="232"
       y="350">
      <path
         d="m 235.464,442.259 44.422,-15.524 47.48,72.179 56.332,-38.73 c 0,0 -42.974,-95.065 -60.839,-106.428 -17.865,-11.363 -90.292,13.603 -90.292,13.603 l 2.736,74.74 z"
         fill="#ffffff"
         id="path4" />
    </mask>
    <mask
       id="e"
       height="196"
       maskUnits="userSpaceOnUse"
       width="219"
       x="29"
       y="396">
      <path
         d="m 247.052,396.647 c 0,50.573 -13.037,78.581 -54.884,120.191 -41.847,41.611 -105.5825,74.58 -105.5825,74.58 0,0 4.5065,-11.203 0,-34.409 -4.5066,-23.206 -43.1344,-67.698 -57.137,-63.057 0,0 59.0684,-35.689 78.0605,-49.292 0,0 -28.3272,-27.688 -17.0608,-48.173 H 247.052 Z"
         fill="#ffffff"
         id="path5" />
    </mask>
    <mask
       id="f"
       height="183"
       maskUnits="userSpaceOnUse"
       width="329"
       x="23"
       y="218">
      <path
         d="M 23.0107,362.558 C 84.8152,288.779 107.992,257.411 156.76,250.689 c 48.767,-6.722 110.733,29.608 110.733,29.608 l 43.295,-61.456 c 0,0 25.752,6.722 41.042,17.924 0,0 -32.512,73.78 -59.551,96.186 -27.04,22.405 -55.045,4.961 -55.045,4.961 l 9.979,58.735 H 90.6094 l 4.8285,-37.77 -33.6384,41.131 -38.6278,-37.45 z"
         fill="#ffffff"
         id="path6" />
    </mask>
    <mask
       id="g"
       height="49"
       maskUnits="userSpaceOnUse"
       width="55"
       x="310"
       y="188">
      <path
         d="m 310.787,218.841 c 5.955,-9.282 2.414,-20.645 14.003,-20.165 0,0 4.184,-6.722 7.886,-8.803 3.702,-2.08 7.243,-0.48 7.887,3.041 0,0 3.702,-1.76 6.599,0.32 2.897,2.081 2.736,4.481 2.736,4.481 0,0 4.989,-0.48 7.082,2.721 2.092,3.201 0.804,5.121 0.804,5.121 0,0 6.438,-0.32 6.277,6.402 -0.322,6.562 -12.232,24.967 -12.232,24.967 l -41.042,-17.925 z"
         fill="#ffffff"
         id="path7" />
    </mask>
    <mask
       id="h"
       height="77"
       maskUnits="userSpaceOnUse"
       width="81"
       x="-19"
       y="362">
      <path
         d="m 61.6409,400.008 c 0,0 -13.6807,20.965 -18.5092,22.406 -4.8285,1.6 -5.4723,-10.403 -5.4723,-10.403 0,0 -18.6701,23.686 -22.5329,25.927 -3.8628,2.24 -8.20838,-2.401 -7.24269,-5.922 0,0 -6.59891,6.722 -10.1398,3.681 -3.54088,-3.041 -0.80474,-10.082 -0.80474,-10.082 0,0 -5.95512,5.121 -9.17407,1.76 -3.219,-3.361 -0.4829,-8.802 -0.4829,-8.802 0,0 -5.1504,0.96 -6.1161,-4.481 -0.9656,-5.442 16.89971,-21.446 42.0078,-51.374 l 38.6278,37.45 z"
         fill="#ffffff"
         id="path8" />
    </mask>
  </defs>
  <g
     inkscape:label="Layer 1"
     inkscape:groupmode="layer"
     id="layer1"
     transform="translate(-30.956253,-57.15)">
    <g
       clip-path="url(#clipPath265)"
       id="g135"
       transform="matrix(0.26458333,0,0,0.26458333,30.956253,52.666724)">
      <path
         d="M 0,0 H 560 V 920 H 0 Z"
         fill="#201f24"
         id="path9" />
      <path
         d="M 328,124.5 901,-215 V -34.4503 L 402,145 Z"
         fill="#f2cdac"
         id="path10" />
      <path
         d="M 211,119.801 430.514,-199 614,-79.8689 273,137 Z"
         fill="#626070"
         id="path11" />
      <path
         d="m 429.729,270.534 c -26.557,27.207 -45.871,38.57 -45.871,38.57 l 4.829,6.882 c 0,0 26.556,-21.286 41.042,-37.77 z"
         fill="#f8f4f0"
         id="path12" />
      <path
         d="m 388.687,316.626 c 0,0 -0.322,0 -0.322,-0.16 l -4.829,-6.882 c 0,0 0,-0.16 0,-0.32 0,-0.16 0,-0.16 0.161,-0.32 0.161,0 19.475,-11.683 45.71,-38.57 0,0 0.322,-0.16 0.482,0 0.161,0 0.322,0.32 0.322,0.48 v 7.682 0.32 c -14.324,16.485 -40.881,37.77 -41.042,37.93 0,0 -0.161,0 -0.322,0 z m -4.024,-7.362 4.184,6.082 c 3.38,-2.721 27.04,-22.086 40.399,-37.29 v -6.242 c -23.821,24.007 -41.686,35.69 -44.583,37.61 z"
         fill="#101720"
         id="path13" />
      <path
         d="m 363.418,277.896 c -26.556,27.207 -45.87,38.57 -45.87,38.57 l 4.828,6.882 c 0,0 26.557,-21.286 41.042,-37.77 z"
         fill="#f8f4f0"
         id="path14" />
      <path
         d="m 322.376,323.828 c 0,0 -0.322,0 -0.322,-0.16 l -4.829,-6.882 c 0,0 0,-0.16 0,-0.32 0,-0.16 0,-0.16 0.161,-0.32 0.161,0 19.475,-11.683 45.71,-38.57 0,0 0.322,-0.16 0.483,0 0.161,0 0.322,0.32 0.322,0.48 v 7.682 0.32 c -14.325,16.485 -40.881,37.77 -41.042,37.93 0,0 -0.161,0 -0.322,0 z m -4.024,-7.202 4.185,6.082 c 3.38,-2.721 27.039,-22.086 40.398,-37.29 v -6.242 c -23.82,24.007 -41.686,35.69 -44.583,37.61 z"
         fill="#101720"
         id="path15" />
      <path
         d="m 463.045,398.568 c 0,0 -25.591,-26.887 -41.525,-68.658 -9.818,-25.927 -16.095,-57.455 -10.14,-91.864 C 426.831,148.102 392.71,98.4895 392.71,98.4895 L 506.984,62.3201 c 81.44,82.4209 14.485,144.9979 27.039,207.0939 1.771,8.802 4.185,16.644 6.921,23.846 17.061,43.691 49.251,59.376 49.251,59.376 l -127.15,45.771 z"
         fill="#82c9d7"
         id="path16" />
      <path
         d="m 463.044,399.048 h -0.322 c -0.322,-0.32 -25.913,-27.527 -41.686,-68.818 -11.91,-31.048 -15.29,-61.936 -10.139,-92.024 8.047,-46.412 2.575,-81.781 -3.541,-103.387 -6.438,-23.366 -14.968,-35.8494 -15.129,-35.8494 0,0 0,-0.3201 0,-0.4801 0,-0.16 0.161,-0.3201 0.321,-0.3201 L 506.822,62 h 0.483 c 24.143,24.3263 37.34,49.293 40.399,76.02 2.736,23.526 -2.415,45.612 -7.404,67.057 -5.151,22.246 -10.14,43.211 -5.794,64.337 1.609,8.322 4.023,16.324 6.921,23.846 16.738,43.051 48.767,59.056 49.089,59.216 0.161,0 0.322,0.32 0.322,0.48 0,0.16 0,0.32 -0.322,0.48 l -127.311,45.772 c 0,0 0,0 -0.161,0 z M 393.353,98.6495 c 1.61,2.7205 9.013,14.8835 14.968,35.6895 6.117,21.605 11.589,57.135 3.541,103.707 -5.15,29.768 -1.77,60.656 9.979,91.544 14.968,39.21 38.628,65.457 41.203,68.337 L 588.907,352.476 C 583.434,349.435 555.59,332.47 540.3,293.26 c -2.897,-7.682 -5.311,-15.684 -7.082,-24.006 -4.346,-21.286 0.644,-42.411 5.794,-64.817 10.14,-43.211 20.602,-87.863 -32.511,-141.9569 L 393.192,98.3295 Z"
         fill="#101720"
         id="path17" />
      <path
         d="m 560.741,348.314 -93.35,33.609 c -7.887,-9.922 -22.211,-30.088 -32.351,-56.334 -3.058,-7.682 -5.633,-15.845 -7.725,-24.647 -4.829,-20.485 -5.473,-40.971 -2.093,-60.656 6.116,-35.849 5.633,-69.778 -1.609,-100.826 -3.219,-13.763 -7.243,-24.806 -10.784,-32.808 l 89.649,-28.3278 c 15.29,16.8044 24.625,33.6088 28.649,51.0528 5.794,24.807 0.322,47.693 -5.312,72.179 -5.311,22.726 -10.783,46.252 -5.955,70.579 0.322,1.6 0.644,3.04 0.966,4.641 1.77,7.362 3.863,14.244 6.277,20.645 3.219,8.642 7.243,16.324 11.266,23.046 7.082,11.843 15.13,20.966 22.372,27.687 z"
         fill="#82c9d7"
         id="path18" />
      <path
         d="m 467.392,382.403 c 0,0 -0.322,0 -0.322,-0.16 -7.726,-9.762 -22.211,-29.927 -32.351,-56.334 -3.219,-8.162 -5.794,-16.485 -7.726,-24.647 -4.828,-20.645 -5.472,-41.13 -2.092,-60.815 6.116,-35.69 5.633,-69.619 -1.609,-100.667 -2.576,-11.683 -6.277,-22.566 -10.784,-32.648 v -0.32 c 0,0 0.161,-0.16 0.322,-0.32 l 89.649,-28.3277 h 0.482 c 15.291,16.8044 24.626,33.6087 28.81,51.3737 5.794,24.966 0.322,48.012 -5.311,72.338 v 0.801 c -5.311,22.566 -10.784,45.772 -5.955,69.618 0.322,1.44 0.483,2.721 0.805,4.001 v 0.64 c 1.77,6.882 3.862,13.924 6.438,20.645 3.058,7.842 6.599,15.364 11.266,23.046 6.277,10.403 13.681,19.685 22.211,27.688 0,0 0.161,0.32 0,0.48 -0.161,0.16 0,0.32 -0.322,0.32 l -93.35,33.609 c 0,0 0,0 -0.161,0 z M 413.635,107.132 c 4.345,9.922 8.047,20.965 10.622,32.328 7.243,31.208 7.726,65.137 1.61,100.987 -3.38,19.525 -2.736,39.85 2.092,60.495 1.931,8.162 4.507,16.485 7.565,24.487 10.139,26.086 24.303,46.092 32.029,55.854 l 92.223,-33.289 c -8.208,-7.842 -15.612,-17.124 -21.728,-27.367 -4.506,-7.682 -8.208,-15.204 -11.266,-23.206 -2.575,-6.721 -4.668,-13.763 -6.277,-20.645 v -0.64 c -0.483,-1.281 -0.644,-2.561 -0.966,-4.001 -4.828,-24.007 0.483,-47.373 5.794,-69.938 v -0.801 c 5.955,-24.166 11.267,-47.052 5.473,-71.858 -4.024,-17.445 -13.359,-34.0892 -28.327,-50.7335 l -88.844,28.1675 z"
         fill="#101720"
         id="path19" />
      <path
         d="m 590.195,352.796 -127.311,45.771 c 0,0 -25.591,-26.886 -41.525,-68.657 l 13.681,-4.321 c 10.14,26.246 24.464,46.412 32.351,56.334 l 93.35,-33.609 c -7.242,-6.881 -15.129,-16.004 -22.372,-27.687 -4.023,-6.882 -7.886,-14.404 -11.266,-23.046 l 13.681,-4.161 c 17.06,43.852 49.411,59.376 49.411,59.376 z"
         fill="#f2cdac"
         id="path20" />
      <path
         d="m 463.046,399.048 h -0.322 c -0.322,-0.32 -25.752,-27.367 -41.686,-68.818 0,-0.16 0,-0.48 0.322,-0.64 l 13.681,-4.161 c 0.322,0 0.483,0 0.644,0.32 10.139,26.086 24.303,46.092 32.028,55.854 l 92.224,-33.289 c -8.208,-7.842 -15.612,-17.124 -21.728,-27.367 -4.506,-7.682 -8.208,-15.204 -11.266,-23.206 v -0.32 c 0,0 0.161,-0.16 0.322,-0.32 l 13.68,-4.161 c 0.322,0 0.483,0 0.644,0.32 8.852,22.566 21.728,37.45 30.902,45.932 9.979,9.282 18.027,13.124 18.188,13.284 0.161,0 0.322,0.32 0.322,0.48 0,0.16 0,0.32 -0.322,0.48 l -127.311,45.772 c 0,0 0,0 -0.161,0 z M 422.004,330.07 c 14.968,38.89 38.628,65.137 41.042,67.857 l 125.862,-45.291 c -2.414,-1.281 -9.335,-5.442 -17.382,-12.804 -9.335,-8.482 -22.211,-23.366 -31.063,-45.932 l -12.715,3.841 c 2.897,7.682 6.598,15.044 10.944,22.566 6.277,10.403 13.681,19.685 22.211,27.687 0,0 0.161,0.32 0,0.48 -0.161,0.161 0,0.321 -0.322,0.321 l -93.35,33.608 c -0.161,0 -0.483,0 -0.483,-0.16 -7.726,-9.602 -22.05,-29.767 -32.19,-56.014 l -12.715,3.841 z"
         fill="#101720"
         id="path21" />
      <path
         d="m 475.759,279.177 c -30.419,7.041 -55.527,-5.122 -56.332,-27.048 -0.805,-21.925 23.337,-45.291 53.757,-52.333 30.419,-7.042 55.527,5.121 56.332,27.047 0.805,21.926 -23.338,45.292 -53.757,52.334 z"
         fill="#f2cdac"
         id="path22" />
      <path
         d="m 459.182,281.577 c -11.427,0 -21.728,-2.881 -29.131,-8.482 -6.921,-5.282 -10.784,-12.483 -10.945,-20.966 -0.805,-22.085 23.499,-45.772 54.079,-52.813 18.026,-4.161 35.087,-1.601 45.871,6.561 6.92,5.282 10.783,12.484 10.944,20.966 0.805,22.086 -23.498,45.772 -54.079,52.814 -5.794,1.28 -11.427,1.92 -16.739,1.92 z m 30.742,-83.222 c -5.312,0 -10.945,0.641 -16.578,1.921 -30.098,6.882 -54.079,30.088 -53.274,51.853 0.322,8.162 4.023,15.044 10.622,20.166 10.462,8.002 27.362,10.402 45.066,6.401 30.098,-6.882 54.079,-30.088 53.274,-51.853 -0.321,-8.162 -4.023,-15.044 -10.622,-20.165 -7.243,-5.442 -17.222,-8.323 -28.488,-8.323 z"
         fill="#101720"
         id="path23" />
      <path
         d="m 519.056,119.615 c -0.161,0 -0.322,0 -0.483,-0.32 -6.76,-19.5251 -23.982,-36.8096 -24.143,-36.9696 -0.161,-0.1601 -0.161,-0.4801 0,-0.6402 0.161,-0.16 0.483,-0.16 0.644,0 0.161,0.1601 17.544,17.6046 24.303,37.2898 0,0.32 0,0.48 -0.321,0.64 0,0 0,0 -0.161,0 z"
         fill="#101720"
         id="path24" />
      <path
         d="m 508.433,123.136 c -0.161,0 -0.322,0 -0.483,-0.32 -6.277,-20.486 -22.533,-37.4501 -22.694,-37.7702 -0.161,-0.16 -0.161,-0.4801 0,-0.6401 0.161,-0.1601 0.483,-0.1601 0.644,0 0.161,0.16 16.578,17.4443 22.855,38.0903 0,0.32 0,0.48 -0.322,0.64 z"
         fill="#101720"
         id="path25" />
      <path
         d="m 497.811,126.657 c -0.161,0 -0.322,0 -0.483,-0.32 -5.955,-21.446 -21.084,-38.2503 -21.245,-38.4104 -0.161,-0.16 -0.161,-0.4801 0,-0.6401 0.161,-0.1601 0.482,0 0.643,0 0.161,0.16 15.452,17.1245 21.568,38.7305 0,0.32 0,0.48 -0.322,0.64 z"
         fill="#101720"
         id="path26" />
      <path
         d="m 487.026,130.178 c -0.161,0 -0.483,0 -0.483,-0.32 -5.633,-22.406 -19.797,-39.0506 -19.958,-39.2107 -0.161,-0.16 0,-0.4801 0,-0.6401 0.161,-0.1601 0.483,0 0.644,0 0,0 14.485,16.9648 20.119,39.5298 0,0.321 0,0.481 -0.322,0.641 z"
         fill="#101720"
         id="path27" />
      <path
         d="m 476.404,133.699 c -0.161,0 -0.483,0 -0.483,-0.321 -5.151,-23.366 -18.348,-39.6898 -18.509,-39.8499 -0.161,-0.16 0,-0.4801 0,-0.6402 h 0.643 c 0,0 13.52,16.6441 18.671,40.3301 0,0.321 0,0.481 -0.322,0.641 z"
         fill="#101720"
         id="path28" />
      <path
         d="m 465.781,137.22 c -0.161,0 -0.483,0 -0.483,-0.321 -4.828,-24.326 -16.9,-40.4901 -17.06,-40.6501 -0.161,-0.16 0,-0.4801 0,-0.6402 0,-0.16 0.482,0 0.643,0 0,0 12.393,16.4843 17.222,40.9703 0,0.32 0,0.481 -0.322,0.481 z"
         fill="#101720"
         id="path29" />
      <path
         d="m 454.998,140.741 c -0.161,0 -0.482,0 -0.482,-0.321 -4.507,-25.286 -15.612,-41.1302 -15.773,-41.2902 -0.161,-0.1601 0,-0.4802 0,-0.6402 0,-0.1601 0.482,0 0.643,0 0,0 11.428,16.3244 15.934,41.7704 0,0.321 0,0.481 -0.322,0.481 z"
         fill="#101720"
         id="path30" />
      <path
         d="m 444.376,144.261 c -0.161,0 -0.483,-0.16 -0.483,-0.32 -4.024,-26.247 -14.164,-41.931 -14.325,-42.091 0,-0.16 0,-0.48 0,-0.64 h 0.644 c 0,0 10.462,16.004 14.486,42.411 0,0.32 0,0.48 -0.322,0.48 z"
         fill="#101720"
         id="path31" />
      <path
         d="m 433.753,147.782 c -0.161,0 -0.483,-0.16 -0.483,-0.48 -3.701,-27.207 -12.875,-42.731 -12.875,-42.891 0,-0.16 0,-0.48 0.16,-0.64 0.161,-0.16 0.483,0 0.644,0 0,0 9.335,15.844 13.037,43.211 0,0.32 0,0.48 -0.483,0.48 z"
         fill="#101720"
         id="path32" />
      <path
         d="m 532.736,261.252 c 22.533,3.681 12.715,29.288 -25.752,57.135 l 10.14,4.161 c 0,0 17.705,-12.003 31.063,-30.728 13.359,-18.725 4.829,-35.369 -15.934,-37.45 l 0.322,6.722 z"
         fill="#f8f4f0"
         id="path33" />
      <path
         d="m 517.124,323.028 c 0,0 0,0 -0.161,0 l -10.139,-4.161 c -0.161,0 -0.322,-0.16 -0.322,-0.32 0,-0.16 0,-0.32 0.161,-0.48 25.269,-18.245 39.915,-37.13 37.179,-48.013 -0.966,-4.321 -4.989,-7.202 -11.266,-8.162 -0.161,0 -0.322,-0.16 -0.322,-0.48 l -0.322,-6.722 v -0.32 h 0.322 c 10.139,0.96 17.865,5.602 21.084,12.643 3.38,7.362 1.609,16.485 -4.829,25.607 -13.197,18.405 -31.063,30.728 -31.224,30.728 0,0 -0.161,0 -0.322,0 z m -9.174,-4.801 9.174,3.841 c 2.093,-1.441 18.349,-13.124 30.742,-30.408 6.277,-8.802 8.047,-17.445 4.828,-24.647 -3.058,-6.561 -10.14,-11.042 -19.636,-12.003 l 0.322,5.762 c 6.438,1.12 10.462,4.161 11.589,8.962 2.736,11.363 -11.428,29.928 -36.858,48.493 z"
         fill="#101720"
         id="path34" />
      <path
         d="m 403.817,165.867 c -28.649,14.404 -39.916,27.047 -39.916,27.047 l 5.956,4.801 z"
         fill="#f8f4f0"
         id="path35" />
      <path
         d="m 370.017,198.195 c 0,0 -0.161,0 -0.322,0 l -5.955,-4.801 c 0,0 -0.161,-0.16 -0.161,-0.32 0,-0.16 0,-0.32 0,-0.32 0,0 11.588,-12.963 40.076,-27.047 0.161,0 0.483,0 0.644,0.16 v 0.64 l -33.96,31.849 c 0,0 -0.161,0 -0.322,0 z m -5.311,-5.441 5.15,4.161 31.224,-29.127 c -23.498,12.163 -34.443,22.886 -36.374,24.966 z"
         fill="#101720"
         id="path36" />
      <path
         d="m 414.759,336.471 c -26.556,27.207 -45.87,38.57 -45.87,38.57 l 4.828,6.882 c 0,0 26.557,-21.285 41.042,-37.77 z"
         fill="#f8f4f0"
         id="path37" />
      <path
         d="m 373.718,382.403 c 0,0 -0.322,0 -0.322,-0.16 l -4.828,-6.882 c 0,0 0,-0.16 0,-0.32 0,-0.16 0,-0.16 0.161,-0.32 0.16,0 19.474,-11.683 45.709,-38.57 0,0 0.322,-0.16 0.483,0 0.161,0 0.322,0.32 0.322,0.48 v 7.682 0.32 c -14.325,16.485 -40.881,37.61 -41.042,37.93 0,0 -0.161,0 -0.322,0 z m -4.024,-7.202 4.185,6.082 c 3.38,-2.721 27.039,-22.086 40.398,-37.29 v -6.241 c -23.82,24.006 -41.686,35.689 -44.583,37.609 z"
         fill="#101720"
         id="path38" />
      <path
         d="m 503.605,335.831 c -26.557,27.207 -45.871,38.57 -45.871,38.57 l 4.829,6.882 c 0,0 26.556,-21.286 41.042,-37.77 z"
         fill="#f8f4f0"
         id="path39" />
      <path
         d="m 462.562,381.763 c 0,0 -0.322,0 -0.322,-0.16 l -4.829,-6.882 c 0,0 0,-0.16 0,-0.32 0,-0.16 0,-0.16 0.161,-0.32 0.161,0 19.475,-11.683 45.71,-38.57 0,0 0.322,-0.16 0.483,0 0.16,0 0.321,0.32 0.321,0.48 v 7.682 0.32 c -14.324,16.485 -40.881,37.61 -41.042,37.93 0,0 -0.161,0 -0.322,0 z m -4.024,-7.202 4.184,6.082 c 3.38,-2.721 27.04,-22.086 40.399,-37.29 v -6.242 c -23.821,24.007 -41.686,35.69 -44.583,37.61 z"
         fill="#101720"
         id="path40" />
      <path
         d="m 571.526,330.23 c 9.013,8.642 -2.254,33.769 -16.9,51.693 l 6.116,4.961 c 0,0 27.522,-27.687 16.578,-56.654 z"
         fill="#f8f4f0"
         id="path41" />
      <path
         d="m 560.741,387.365 c 0,0 -0.161,0 -0.322,0 l -6.116,-4.962 c -0.161,-0.16 -0.161,-0.48 0,-0.64 14.968,-18.085 25.591,-42.891 16.9,-51.053 0,0 -0.161,-0.32 0,-0.48 0,-0.16 0.322,-0.32 0.483,-0.32 h 5.794 c 0.161,0 0.322,0 0.483,0.32 10.944,28.967 -16.417,56.975 -16.739,57.135 0,0 -0.161,0 -0.322,0 z m -5.472,-5.442 5.472,4.481 c 2.897,-3.2 26.074,-28.807 16.256,-55.534 h -4.346 c 4.507,5.441 2.415,14.884 -0.161,22.086 -3.38,9.282 -9.657,19.845 -17.221,29.127 z"
         fill="#101720"
         id="path42" />
      <path
         d="m 156.114,233.565 -1.932,23.846 25.752,-3.201 -1.609,-12.323 c 4.345,-0.64 11.749,-2.401 15.29,-7.202 5.15,-6.882 1.77,-20.645 1.77,-20.645 0,0 5.312,-1.441 4.507,-4.641 -0.966,-3.041 -5.311,-2.561 -5.311,-2.561 -2.093,-7.682 -7.726,-22.566 -7.726,-22.566 l -37.018,7.682 c 0,0 0.804,5.761 1.77,13.283 0.483,3.041 -4.185,6.722 -3.702,10.083 0.483,3.201 6.116,5.922 6.599,8.642 0.644,4.161 1.288,7.522 1.771,9.603 z"
         fill="#ff7e6d"
         id="path43" />
      <g
         mask="url(#b)"
         id="g44">
        <path
           d="m 193.618,234.685 c -5.312,4.161 -20.924,1.28 -25.913,-4.641 -4.99,-5.922 1.609,-12.003 0.322,-18.725 -1.288,-6.722 -4.346,-15.684 -4.346,-15.684 l -17.382,17.285 9.335,27.367 c 0,0 12.876,3.2 16.256,8.162 3.379,4.961 -0.644,11.843 -0.644,11.843 l 20.601,-7.682 z"
           fill="#008fb1"
           id="path44" />
      </g>
      <path
         d="m 154.026,257.891 c 0,0 -0.161,0 -0.322,0 0,0 -0.161,-0.16 0,-0.32 l 1.931,-23.686 c -0.322,-1.921 -0.965,-5.121 -1.77,-9.603 -0.161,-1.28 -1.61,-2.56 -2.897,-3.841 -1.61,-1.44 -3.219,-3.04 -3.541,-4.961 -0.322,-1.76 0.805,-3.681 1.931,-5.601 0.966,-1.601 1.932,-3.201 1.771,-4.482 -0.966,-7.361 -1.771,-13.283 -1.771,-13.283 0,-0.32 0,-0.48 0.322,-0.48 l 37.018,-7.682 c 0.161,0 0.483,0 0.483,0.32 0,0 5.473,14.564 7.726,22.086 1.126,0 4.506,0 5.311,2.88 0.161,0.801 0,1.441 -0.161,2.241 -0.966,1.6 -3.058,2.561 -4.024,2.881 0.483,2.4 2.898,14.244 -1.931,20.645 -3.541,4.641 -10.784,6.562 -15.129,7.202 l 1.448,11.843 v 0.32 c 0,0 -0.161,0.16 -0.322,0.16 l -25.751,3.201 z m -3.702,-65.457 c 0.161,1.44 0.966,6.562 1.77,12.803 0.161,1.601 -0.804,3.361 -1.931,5.122 -0.966,1.6 -2.092,3.361 -1.771,4.961 0.161,1.44 1.771,2.881 3.219,4.321 1.61,1.441 3.058,2.881 3.219,4.321 0.644,4.481 1.288,7.682 1.771,9.603 l -1.931,23.366 24.786,-3.041 -1.449,-11.843 c 0,0 0,0 0,-0.16 0,-0.16 0.161,-0.32 0.322,-0.48 4.185,-0.64 11.427,-2.241 14.968,-6.882 4.99,-6.722 1.771,-20.165 1.771,-20.325 0,-0.32 0,-0.48 0.322,-0.64 0,0 3.058,-0.801 4.023,-2.561 0.322,-0.48 0.322,-0.96 0.161,-1.44 -0.804,-2.561 -4.667,-2.241 -4.667,-2.241 -0.161,0 -0.483,0 -0.483,-0.32 -1.931,-6.882 -6.76,-19.685 -7.565,-22.086 l -36.213,7.522 z"
         fill="#101720"
         id="path45" />
      <path
         d="m 190.237,204.597 c 0,0 -2.415,-3.361 -6.921,-2.08 -4.507,1.28 -4.829,4.321 -4.829,4.321 0,0 2.415,3.361 6.599,2.4 4.185,-0.96 5.151,-4.641 5.151,-4.641 z"
         fill="#f8f4f0"
         id="path46" />
      <g
         mask="url(#c)"
         id="g47">
        <path
           d="m 186.213,209.239 c 1.689,0 3.058,-1.362 3.058,-3.041 0,-1.68 -1.369,-3.041 -3.058,-3.041 -1.688,0 -3.058,1.361 -3.058,3.041 0,1.679 1.37,3.041 3.058,3.041 z"
           fill="#101720"
           id="path47" />
      </g>
      <path
         d="m 185.248,226.043 c -0.483,0 -0.966,0 -1.288,-0.32 -1.287,-0.641 -2.092,-1.921 -2.253,-3.681 0,-0.32 0.161,-0.48 0.483,-0.48 0.322,0 0.483,0.16 0.483,0.48 0,1.44 0.644,2.4 1.609,2.88 0.805,0.32 1.771,0.16 2.736,-0.48 0.161,-0.16 0.483,0 0.644,0 0.161,0 0,0.48 0,0.64 -0.644,0.481 -1.448,0.801 -2.253,0.801 z"
         fill="#101720"
         id="path48" />
      <path
         d="m 178.165,202.357 c 0,0 0,0 -0.161,0 -0.161,0 -0.322,-0.481 -0.161,-0.641 0.805,-1.6 2.575,-2.72 4.829,-3.36 2.414,-0.641 4.828,-0.16 6.437,1.12 0.161,0.16 0.322,0.48 0,0.64 -0.321,0.16 -0.482,0.32 -0.643,0 -1.449,-0.96 -3.541,-1.44 -5.634,-0.96 -1.931,0.48 -3.54,1.44 -4.184,2.72 0,0.161 -0.322,0.321 -0.483,0.321 z"
         fill="#101720"
         id="path49" />
      <path
         d="m 183.318,202.357 c 0,0 -2.253,0.48 -3.54,1.92 -1.288,1.441 -1.771,2.721 -2.254,3.041 l 0.805,0.64 c 0,0 1.931,-4.481 5.15,-5.601 z"
         fill="#101720"
         id="path50" />
      <path
         d="m 137.93,216.92 c 0.644,1.121 1.448,2.081 2.092,3.201 8.691,13.124 15.129,23.686 15.129,23.686 l 2.093,-20.645 c -2.736,0.16 -9.657,-5.441 -5.794,-11.843 3.219,-5.282 8.852,1.92 10.622,3.041 0.322,0.16 0.644,0.32 0.966,0.32 0.322,0 0.483,-0.64 0.483,-0.961 0.804,-4.961 0.322,-10.082 -1.449,-14.883 2.736,-0.32 5.633,-0.641 8.209,-1.601 2.575,-0.96 4.989,-2.721 6.116,-5.281 0,-0.16 0.161,-0.48 0.322,-0.64 0,0 10.3,3.521 15.451,-3.841 5.15,-7.522 -1.288,-10.243 -1.288,-10.243 0,0 -10.14,-10.723 -22.211,-9.282 -47.48,5.921 -26.557,20.965 -26.557,20.965 0,0 -14.646,12.963 -4.345,28.007 z"
         fill="#82c9d7"
         id="path51" />
      <path
         d="m 155.311,244.288 c -0.161,0 -0.322,0 -0.483,-0.16 0,0 -6.599,-10.723 -15.129,-23.687 -0.483,-0.8 -0.966,-1.6 -1.61,-2.24 l -0.643,-0.8 c -9.335,-13.924 1.77,-25.927 4.023,-28.328 -1.448,-1.12 -5.15,-4.641 -4.184,-8.962 1.448,-5.922 12.071,-10.083 31.385,-12.483 11.588,-1.441 21.728,8.322 22.533,9.282 0.483,0.16 2.575,1.44 3.38,3.841 0.643,2.081 0,4.481 -1.932,7.202 -4.828,6.882 -13.68,4.801 -15.612,4.161 v 0.32 c -1.287,2.401 -3.541,4.481 -6.599,5.602 -2.575,0.96 -5.15,1.28 -7.725,1.44 1.448,4.641 1.931,9.602 1.126,14.564 0,0.32 -0.161,1.12 -0.804,1.28 -0.483,0.16 -1.127,0 -1.449,-0.32 -0.322,-0.16 -0.966,-0.8 -1.609,-1.44 -1.61,-1.441 -4.185,-3.841 -6.116,-3.521 -0.805,0 -1.61,0.64 -2.254,1.76 -1.77,3.041 -0.965,5.602 0,7.362 1.61,2.561 4.185,3.841 5.312,3.841 h 0.321 v 0.32 l -2.092,20.645 c 0,0.161 -0.161,0.321 -0.322,0.481 z m 15.773,-76.02 c -0.805,0 -1.448,0 -2.253,0 -23.499,2.881 -29.615,8.002 -30.581,11.843 -1.126,4.321 4.185,8.162 4.185,8.322 0,0 0.161,0.16 0.161,0.32 0,0.16 0,0.32 -0.161,0.32 0,0 -3.541,3.201 -5.955,8.162 -3.058,6.562 -2.575,13.124 1.609,19.205 l 0.644,0.801 c 0.483,0.8 0.966,1.6 1.61,2.24 6.921,10.403 12.554,19.365 14.485,22.406 l 1.771,-18.725 c -1.61,-0.16 -4.185,-1.76 -5.634,-4.161 -1.609,-2.721 -1.77,-5.601 0,-8.322 0.805,-1.28 1.771,-1.921 2.898,-2.081 2.414,-0.32 5.15,2.241 6.92,3.841 0.644,0.64 1.127,0.961 1.449,1.281 0,0 0.483,0.32 0.483,0.16 0.161,0 0.161,-0.48 0.322,-0.641 0.643,-4.801 0.321,-9.922 -1.288,-14.563 0,0 0,-0.32 0,-0.48 0,-0.16 0.161,-0.16 0.322,-0.16 2.575,-0.321 5.472,-0.481 8.047,-1.441 2.736,-0.96 4.99,-2.881 5.956,-4.961 0,-0.32 0.321,-0.64 0.482,-0.8 0,-0.16 0.322,-0.16 0.483,0 0.161,0.16 9.979,3.361 14.808,-3.681 1.609,-2.401 2.253,-4.481 1.77,-6.402 -0.644,-2.241 -2.897,-3.201 -2.897,-3.201 0,0 0,0 -0.161,0 0,0 -8.852,-9.282 -19.475,-9.282 z"
         fill="#101720"
         id="path52" />
      <path
         d="m 177.041,191.794 h -0.161 c -0.161,0 -0.322,-0.48 -0.161,-0.64 1.77,-3.201 1.77,-5.282 1.77,-5.282 0,-0.32 0.161,-0.48 0.483,-0.48 0.322,0 0.483,0.16 0.483,0.48 0,0.32 0,2.401 -1.77,5.762 0,0.16 -0.322,0.32 -0.483,0.32 z"
         fill="#101720"
         id="path53" />
      <path
         d="m 140.02,220.121 c 8.691,13.124 15.129,23.686 15.129,23.686 l 2.092,-20.645 c -2.736,0.16 -9.657,-5.441 -5.794,-11.843 3.219,-5.281 8.852,1.92 10.623,3.041 0.321,0.16 0.643,0.32 0.965,0.32 0.322,0 0.483,-0.64 0.483,-0.96 0.805,-4.962 0.322,-10.083 -1.448,-14.884 -5.634,0.64 -18.349,0.64 -18.349,0.64 0,0 1.771,4.001 2.897,9.922 0.805,4.322 -4.023,8.643 -6.598,10.723 z"
         fill="#101720"
         id="path54" />
      <path
         d="m 155.313,244.288 c -0.161,0 -0.322,0 -0.483,-0.161 0,0 -6.599,-10.722 -15.129,-23.686 0,-0.16 0,-0.48 0,-0.64 2.253,-1.76 7.243,-6.081 6.438,-10.243 -1.127,-5.761 -2.897,-9.762 -2.897,-9.762 0,0 0,-0.32 0,-0.48 0,-0.16 0.161,-0.16 0.322,-0.16 0,0 12.876,0 18.348,-0.64 0.161,0 0.483,0 0.483,0.32 1.61,4.801 2.092,10.082 1.449,15.044 0,0.32 -0.161,1.12 -0.805,1.28 -0.483,0.16 -1.127,0 -1.449,-0.32 -0.322,-0.16 -0.965,-0.8 -1.609,-1.44 -1.61,-1.441 -4.185,-3.841 -6.116,-3.521 -0.805,0 -1.61,0.64 -2.254,1.76 -1.77,3.041 -0.965,5.601 0,7.362 1.61,2.561 4.185,3.841 5.312,3.841 h 0.322 v 0.32 l -2.093,20.645 c 0,0.16 -0.161,0.32 -0.322,0.481 z m -14.646,-24.007 c 6.76,10.243 12.232,19.045 14.163,22.086 l 1.771,-18.725 c -1.61,-0.16 -4.185,-1.76 -5.633,-4.161 -1.61,-2.721 -1.771,-5.601 0,-8.322 0.804,-1.28 1.77,-1.921 2.897,-2.081 2.414,-0.32 5.15,2.241 6.921,3.841 0.643,0.641 1.126,0.961 1.448,1.281 0,0 0.483,0.32 0.483,0.16 0.161,0 0.161,-0.48 0.322,-0.64 0.644,-4.802 0.322,-9.603 -1.288,-14.244 -4.989,0.48 -14.646,0.64 -17.382,0.64 0.483,1.44 1.77,4.801 2.736,9.282 0.805,4.322 -3.541,8.483 -6.438,10.883 z"
         fill="#101720"
         id="path55" />
      <path
         d="m 174.947,242.687 c -7.404,0 -11.91,-4.481 -12.071,-4.641 -0.161,-0.16 -0.161,-0.48 0,-0.64 0.161,-0.16 0.483,-0.16 0.644,0 0,0 5.794,5.601 14.807,4.001 0.322,0 0.483,0 0.644,0.32 0.161,0.32 0,0.48 -0.322,0.64 -1.288,0.16 -2.414,0.32 -3.541,0.32 z"
         fill="#101720"
         id="path56" />
      <path
         d="m 158.852,216.76 c -0.161,0 -0.322,0 -0.483,-0.16 -1.287,-2.24 -2.897,-2.881 -3.54,-3.201 -0.644,-0.16 -1.288,0 -1.771,0.16 -0.161,0 -0.483,0 -0.644,0 -0.161,0 0,-0.48 0,-0.64 0.644,-0.32 1.61,-0.48 2.415,-0.32 1.609,0.32 3.058,1.601 4.184,3.521 0,0.16 0,0.48 -0.161,0.64 z"
         fill="#101720"
         id="path57" />
      <path
         d="m 155.632,219.161 c 0,0 -0.322,0 -0.322,-0.16 -1.931,-2.401 -0.805,-6.082 -0.805,-6.242 0,-0.32 0.322,-0.32 0.644,-0.32 0.322,0 0.322,0.32 0.322,0.64 0,0 -0.966,3.361 0.644,5.282 0.161,0.16 0,0.48 0,0.64 0,0 -0.161,0 -0.322,0 z"
         fill="#101720"
         id="path58" />
      <path
         d="m 196.838,174.349 -5.794,2.881 c 1.931,-0.96 3.863,-1.92 5.794,-2.881 z"
         fill="#f2cdac"
         id="path59" />
      <path
         d="m 191.041,177.55 c -0.161,0 -0.321,0 -0.482,-0.32 0,-0.16 0,-0.48 0.161,-0.64 1.77,-0.96 3.862,-1.921 5.794,-2.881 0.161,0 0.483,0 0.643,0.16 0,0.16 10e-4,0.48 -0.16,0.64 l -5.795,2.881 c 0,0 0,0 -0.161,0 z"
         fill="#101720"
         id="path60" />
      <path
         d="m 189.11,190.673 c 0.16,-0.32 3.54,-4.801 4.345,-8.642 0.483,-2.24 -1.448,-4.161 -3.702,-4.001 -1.448,0.16 -3.219,0.64 -4.667,1.441 -0.322,0 -0.644,0.32 -0.966,0.32 l -0.805,0.32 c -1.77,0.8 -3.058,1.6 -3.38,1.76 -21.567,11.363 -45.87,25.287 -45.87,25.287 0,0 -9.979,-21.126 3.219,-34.089 9.657,-9.443 24.464,-13.124 34.282,-12.323 3.702,0.32 6.76,1.28 8.369,2.72 3.219,2.721 7.404,8.163 10.623,12.804 l 1.771,-0.8 4.023,-1.921 c 5.473,-2.561 10.623,-4.481 13.52,-3.681 11.588,3.361 -20.119,20.325 -21.084,20.645 z"
         fill="#f2cdac"
         id="path61" />
      <path
         d="m 134.066,207.638 c 0,0 -0.16,0 -0.321,-0.32 0,-0.16 -9.979,-21.606 3.219,-34.569 9.978,-9.763 24.947,-13.284 34.604,-12.483 3.862,0.32 6.92,1.28 8.691,2.88 2.575,2.241 6.116,6.402 10.623,12.484 l 5.472,-2.721 c 6.921,-3.201 11.427,-4.481 14.002,-3.681 1.771,0.48 2.737,1.44 2.897,2.561 0.644,6.081 -22.854,18.564 -23.82,19.045 -0.161,0 -0.483,0 -0.644,0 -0.161,0 -0.161,-0.481 0,-0.641 0.644,-0.8 3.541,-4.801 4.346,-8.482 0.161,-0.96 0,-1.76 -0.644,-2.56 -0.644,-0.641 -1.449,-0.961 -2.575,-0.961 -1.288,0 -2.897,0.64 -4.507,1.281 -0.161,0 -0.322,0.16 -0.483,0.16 l -1.126,0.48 c -1.61,0.8 -2.897,1.6 -3.219,1.76 -21.246,11.363 -45.549,25.127 -45.871,25.287 h -0.161 z m 34.926,-46.412 c -9.496,0 -22.371,3.681 -31.224,12.323 -11.749,11.523 -4.667,29.768 -3.219,32.969 3.541,-1.921 25.752,-14.564 45.388,-24.967 0.483,-0.32 1.77,-1.12 3.38,-1.92 l 1.127,-0.48 c 0.161,0 0.321,-0.16 0.643,-0.16 1.288,-0.481 3.058,-1.281 4.829,-1.441 1.287,0 2.414,0.32 3.38,1.28 0.805,0.961 1.126,2.081 0.965,3.361 -0.482,2.561 -2.092,5.442 -3.219,7.202 7.243,-4.001 21.89,-12.963 21.568,-17.124 0,-0.8 -0.805,-1.441 -2.254,-1.761 -2.253,-0.64 -6.599,0.48 -13.197,3.681 l -5.795,2.881 c -0.161,0 -0.482,0 -0.643,0 -4.507,-6.242 -8.048,-10.403 -10.623,-12.643 -1.61,-1.441 -4.507,-2.401 -8.208,-2.561 -0.805,0 -1.771,0 -2.576,0 z"
         fill="#101720"
         id="path62" />
      <path
         d="m 180.741,182.031 c -0.161,0 -0.322,0 -0.482,-0.32 0,-0.16 0,-0.48 0.161,-0.64 l 9.978,-5.121 c 0.161,0 0.483,0 0.644,0.16 0,0.16 0,0.48 -0.161,0.64 l -9.979,5.121 c 0,0 0,0 -0.161,0 z"
         fill="#101720"
         id="path63" />
      <path
         d="m 131.171,197.876 c 3.219,-1.441 4.989,3.36 6.438,7.361 l -3.541,1.921 c 0,0 -2.414,-5.761 -2.897,-9.282 z"
         fill="#101720"
         id="path64" />
      <path
         d="m 134.067,207.638 c 0,0 0,0 -0.161,0 0,0 -0.161,0 -0.322,-0.32 0,-0.16 -2.414,-5.762 -2.897,-9.443 0,-0.16 0,-0.48 0.322,-0.48 0.805,-0.32 1.771,-0.32 2.414,0 2.254,0.961 3.541,4.642 4.668,7.682 0,0.16 0,0.48 -0.161,0.64 l -3.541,1.921 h -0.161 z m -2.253,-9.442 c 0.483,2.88 2.092,6.881 2.575,8.322 l 2.736,-1.601 c -0.965,-2.56 -2.253,-5.921 -4.024,-6.721 -0.482,-0.16 -0.965,-0.16 -1.448,0 z"
         fill="#101720"
         id="path65" />
      <path
         d="m 140.665,204.117 c -0.161,0 -0.322,0 -0.483,-0.32 -1.448,-4.321 -3.541,-7.042 -5.794,-8.002 -1.931,-0.8 -3.38,0 -3.38,0 -0.161,0 -0.483,0 -0.644,-0.16 0,-0.16 0,-0.48 0.161,-0.64 0,0 1.771,-0.961 4.185,0 2.575,0.96 4.667,3.841 6.277,8.642 0,0.32 0,0.48 -0.322,0.64 0,0 0,0 -0.161,0 z"
         fill="#101720"
         id="path66" />
      <path
         d="m 192.49,175.47 -8.208,4.161 -0.805,0.32 -11.91,-19.205 c 3.701,0.32 6.76,1.28 8.369,2.721 3.219,2.72 7.404,8.162 10.623,12.803 l 1.77,-0.8 z"
         fill="#f8f4f0"
         id="path67" />
      <path
         d="m 183.478,180.591 c -0.161,0 -0.322,0 -0.483,-0.16 l -11.91,-19.205 c 0,0 0,-0.16 0,-0.32 0,-0.16 0,-0.16 0.161,-0.32 h 0.322 c 3.863,0.32 6.921,1.28 8.691,2.88 2.575,2.241 6.116,6.402 10.623,12.484 l 1.287,-0.64 c 0.161,0 0.483,0 0.644,0.16 0,0.16 0,0.48 -0.161,0.64 l -9.013,4.641 c 0,0 0,0 -0.161,0 z m -10.945,-19.205 11.106,18.085 6.438,-3.201 c -4.346,-5.922 -7.726,-10.083 -10.301,-12.163 -1.448,-1.281 -4.024,-2.241 -7.243,-2.561 z"
         fill="#101720"
         id="path68" />
      <path
         d="m 162.554,191.794 c -0.161,0 -0.322,0 -0.483,-0.16 l -14.807,-25.607 c 0,-0.16 0,-0.48 0.161,-0.64 0.161,-0.16 0.482,0 0.643,0.16 l 14.808,25.607 c 0,0.16 0,0.48 -0.161,0.64 z"
         fill="#101720"
         id="path69" />
      <path
         d="m 380.963,476.508 c -0.644,-1.441 -13.842,-21.606 -13.842,-21.606 l -34.282,21.126 19.475,36.969 29.614,-12.643 -1.126,-23.846 z"
         fill="#ff7e6e"
         id="path70" />
      <path
         d="m 352.315,513.317 c -0.161,0 -0.322,0 -0.483,-0.32 l -19.475,-36.969 c 0,-0.16 0,-0.48 0.161,-0.64 L 366.8,454.262 h 0.644 c 0.483,0.8 13.198,20.325 13.842,21.766 v 0.16 l 1.126,23.846 c 0,0.16 0,0.32 -0.321,0.48 l -29.615,12.643 c 0,0 0,0 -0.161,0 z m -18.831,-37.289 19.153,36.169 28.971,-12.323 -1.127,-23.366 c -0.805,-1.601 -9.657,-15.364 -13.52,-21.126 z"
         fill="#101720"
         id="path71" />
      <path
         d="m 351.83,528.361 c 1.127,2.721 2.415,5.122 4.668,6.882 3.058,2.561 7.886,3.841 16.417,3.041 14.485,-1.28 37.823,-20.485 53.113,-37.45 14.003,-15.524 23.016,-24.806 16.9,-33.769 -0.483,-0.8 -1.288,-1.6 -1.932,-2.4 -5.15,-4.962 -14.968,-5.122 -26.234,-2.561 -10.14,2.241 -21.407,6.562 -31.385,11.203 -6.117,1.44 -4.829,6.562 -4.346,11.363 0.161,2.401 0.322,4.801 -0.805,6.562 -3.219,5.761 -11.266,12.803 -20.279,9.762 -9.014,-3.041 -14.325,4.321 -14.325,4.321 0,0 5.311,16.165 8.208,22.726 z"
         fill="#f8f4f0"
         id="path72" />
      <path
         d="m 368.247,539.084 c -5.312,0 -9.335,-1.12 -12.071,-3.361 -2.415,-1.92 -3.702,-4.641 -4.829,-7.042 -2.736,-6.561 -8.047,-22.726 -8.208,-22.886 0,0 0,-0.32 0,-0.48 0,0 5.633,-7.522 14.807,-4.481 8.852,2.881 16.9,-4.321 19.797,-9.602 0.965,-1.761 0.804,-4.161 0.644,-6.402 0,-0.48 0,-0.96 0,-1.44 -0.483,-4.482 -0.966,-9.123 4.828,-10.563 11.106,-5.282 22.211,-9.283 31.385,-11.203 12.876,-2.881 21.728,-1.921 26.557,2.721 0.804,0.8 1.609,1.6 2.092,2.4 6.277,8.803 -1.931,17.765 -15.451,32.809 l -1.449,1.6 c -15.612,17.125 -38.949,36.17 -53.435,37.61 -1.77,0.16 -3.219,0.16 -4.828,0.16 z m -15.934,-10.883 c 0.965,2.401 2.253,4.962 4.506,6.722 3.219,2.721 8.37,3.521 16.095,2.881 14.325,-1.281 37.341,-20.165 52.792,-37.29 l 1.448,-1.6 c 13.198,-14.564 21.245,-23.366 15.451,-31.529 -0.483,-0.8 -1.126,-1.44 -1.931,-2.24 -4.507,-4.481 -13.198,-5.281 -25.752,-2.401 -9.013,1.921 -20.119,5.922 -31.063,11.203 -5.151,1.281 -4.829,5.122 -4.185,9.603 v 1.44 c 0.161,2.241 0.322,4.801 -0.805,6.882 -5.794,10.563 -15.612,11.683 -20.923,10.082 -7.886,-2.56 -12.715,2.881 -13.52,4.001 0.644,2.081 5.473,16.325 8.048,22.566 z"
         fill="#101720"
         id="path73" />
      <path
         d="m 356.497,535.403 c 7.565,21.286 42.33,-4.321 69.53,-34.409 14.003,-15.524 23.016,-24.806 16.9,-33.769 -7.887,18.085 -44.744,47.533 -61.644,57.936 -11.588,7.041 -19.957,9.442 -24.786,10.242 z"
         fill="#f2cdac"
         id="path74" />
      <path
         d="m 367.12,543.565 c -0.965,0 -1.77,0 -2.575,-0.32 -4.024,-0.8 -6.76,-3.361 -8.369,-7.842 v -0.32 c 0,0 0.161,-0.16 0.322,-0.16 4.828,-0.8 13.198,-3.041 24.625,-10.083 17.382,-10.722 53.757,-39.85 61.483,-57.615 0,-0.16 0.16,-0.32 0.321,-0.32 0.161,0 0.322,0 0.483,0.16 6.277,8.803 -1.931,17.765 -15.451,32.809 l -1.448,1.6 c -18.188,20.006 -43.94,42.411 -59.391,42.411 z m -9.979,-7.842 c 1.449,3.841 4.024,6.082 7.404,6.722 9.013,1.76 30.42,-8.162 61,-41.771 l 1.448,-1.6 c 12.876,-14.084 20.763,-22.886 15.934,-30.888 -8.53,18.084 -44.261,46.732 -61.482,57.295 -11.106,6.881 -19.314,9.282 -24.304,10.242 z"
         fill="#101720"
         id="path75" />
      <path
         d="m 379.03,484.99 c 29.936,-10.403 36.052,-16.804 35.73,-22.566 -10.14,2.241 -21.406,6.562 -31.385,11.203 -6.116,1.44 -4.828,6.562 -4.345,11.363 z"
         fill="#f2cdac"
         id="path76" />
      <path
         d="m 379.03,485.31 c 0,0 -0.161,0 -0.322,0 0,0 -0.161,-0.16 -0.161,-0.32 0,-0.48 0,-0.96 0,-1.44 -0.483,-4.481 -0.966,-9.123 4.829,-10.563 11.105,-5.281 22.211,-9.282 31.385,-11.203 h 0.322 c 0.161,0 0.321,0.16 0.321,0.48 0.322,7.522 -9.978,14.084 -36.052,23.046 0,0 0,0 -0.161,0 z m 35.248,-22.406 c -9.013,2.081 -19.797,5.922 -30.58,11.043 -5.151,1.281 -4.829,5.122 -4.185,9.603 v 0.8 c 29.936,-10.403 34.765,-16.644 34.765,-21.446 z"
         fill="#101720"
         id="path77" />
      <path
         d="m 352.151,522.12 c -1.126,0 -2.092,0 -3.058,-0.32 -0.322,0 -0.483,-0.32 -0.322,-0.641 0.161,-0.32 0.322,-0.48 0.644,-0.32 9.818,1.921 28.649,-7.202 37.34,-14.403 0.966,-0.801 1.932,-1.441 2.897,-2.241 8.531,-6.722 18.027,-14.244 11.267,-28.007 0,-0.16 0,-0.48 0.161,-0.64 0.161,0 0.483,0 0.644,0.16 7.242,14.403 -3.219,22.565 -11.428,29.127 -0.965,0.8 -1.931,1.601 -2.897,2.241 -8.047,6.561 -24.625,14.884 -35.087,14.884 z"
         fill="#101720"
         id="path78" />
      <path
         d="m 235.464,442.259 44.422,-15.524 47.48,72.179 56.332,-38.73 c 0,0 -42.973,-95.065 -60.839,-106.428 -17.865,-11.363 -90.292,13.603 -90.292,13.603 l 2.736,74.74 z"
         fill="#82c9d7"
         id="path79" />
      <g
         mask="url(#d)"
         id="g81">
        <path
           d="m 238.524,369.44 c 14.646,16.004 18.67,43.691 29.132,44.812 10.461,1.12 35.087,-12.004 33.477,-3.201 -1.609,8.802 -0.322,25.446 12.554,43.851 12.876,18.245 35.731,29.128 50.86,18.885 14.968,-10.403 4.668,15.524 4.668,15.524 l -36.214,19.205 -38.628,8.002 -68.403,-59.695 12.715,-87.223 z"
           fill="#008fb1"
           id="path80" />
        <path
           d="m 234.982,358.557 c 13.681,19.685 20.602,68.018 23.016,82.101 2.414,14.084 -36.696,16.805 -36.696,16.805 z"
           fill="#101720"
           id="path81" />
      </g>
      <path
         d="m 327.527,499.394 c 0,0 -0.161,0 -0.322,-0.16 l -47.319,-71.859 -44.1,15.364 c 0,0 -0.322,0 -0.483,0 0,0 -0.161,-0.16 -0.161,-0.32 l -2.736,-74.739 c 0,-0.16 0,-0.321 0.322,-0.481 0.161,0 18.348,-6.401 38.467,-11.202 27.2,-6.402 44.744,-7.362 52.148,-2.561 7.403,4.801 20.118,24.166 37.34,57.615 12.876,24.806 23.659,48.652 23.659,48.973 0,0.16 0,0.48 -0.161,0.64 l -56.332,38.73 c 0,0 -0.161,0 -0.322,0 z m -47.641,-73.139 c 0.161,0 0.322,0 0.322,0.16 l 47.319,71.859 55.689,-38.25 c -2.897,-6.402 -43.457,-94.905 -60.517,-105.788 -16.9,-10.723 -84.177,11.843 -89.488,13.604 l 2.736,73.779 43.778,-15.204 h 0.161 z"
         fill="#101720"
         id="path82" />
      <path
         d="m 247.053,396.647 c 0,50.573 -13.037,78.581 -54.883,120.191 -41.847,41.611 -105.5831,74.58 -105.5831,74.58 0,0 4.5066,-11.203 0,-34.409 -4.5066,-23.206 -43.1344,-67.698 -57.1369,-63.057 0,0 59.0683,-35.689 78.06,-49.292 0,0 -28.3267,-27.688 -17.0603,-48.173 H 247.053 Z"
         fill="#82c9d7"
         id="path83" />
      <g
         mask="url(#e)"
         id="g84">
        <path
           d="m 141.631,387.525 c -15.934,15.044 0.483,28.807 -3.38,44.331 -3.863,15.524 -60.195,50.093 -63.575,65.137 -3.3799,14.884 41.525,46.412 41.525,77.46 0,31.048 -23.3377,36.65 -23.3377,36.65 L 28.9665,557.329 0.317505,479.869 83.2064,381.283 Z"
           fill="#008fb1"
           id="path84" />
      </g>
      <path
         d="m 86.5866,591.898 c 0,0 -0.1609,0 -0.3219,0 0,0 -0.1609,-0.32 0,-0.48 0,0 4.3457,-11.363 0,-34.089 -3.7018,-19.045 -29.2927,-50.413 -45.7096,-60.016 -4.6675,-2.72 -8.2084,-3.521 -10.9445,-2.72 -0.161,0 -0.4829,0 -0.6438,-0.321 0,-0.16 0,-0.48 0.161,-0.64 0.6438,-0.32 58.2636,-35.209 77.5772,-48.812 -3.38,-3.521 -27.3611,-29.128 -16.7385,-48.333 0,-0.16 0.322,-0.32 0.4829,-0.32 H 247.053 c 0.322,0 0.483,0.16 0.483,0.48 0,50.413 -12.715,78.581 -55.045,120.672 -42.329,42.09 -105.0996,74.259 -105.7434,74.579 z M 31.7029,493.152 c 2.5752,0 5.6333,1.121 9.1741,3.201 16.5778,9.603 42.4906,41.291 46.1925,60.656 3.7018,19.205 1.2876,30.088 0.3219,33.448 8.5303,-4.481 66.1496,-35.689 104.4556,-73.939 C 233.855,474.747 246.57,446.9 246.57,397.127 H 90.6103 c -10.6226,20.005 16.8997,47.052 17.0607,47.373 0,0 0.161,0.16 0,0.32 0,0 0,0.32 -0.161,0.32 -16.8997,12.003 -65.5063,41.611 -76.129,48.012 z"
         fill="#101720"
         id="path85" />
      <path
         d="m 86.5873,591.418 c -0.9657,-0.48 -31.868,-14.564 -45.8706,-44.012 -14.3244,-29.928 -11.2664,-53.454 -11.2664,-53.454 14.0026,-4.641 52.7913,39.851 57.137,63.057 4.5065,23.206 0,34.409 0,34.409 z"
         fill="#101720"
         id="path86" />
      <path
         d="m 86.5873,591.898 c 0,0 -0.1609,0 -0.3219,0 -1.9313,-0.96 -32.0289,-14.884 -46.1924,-44.172 -14.1635,-29.767 -11.2664,-53.454 -11.2664,-53.614 0,-0.16 0,-0.32 0.3219,-0.32 2.8971,-0.96 6.7598,0 11.7493,2.721 16.5777,9.603 42.4906,41.291 46.1924,60.656 4.5066,23.046 0,34.249 0,34.569 0,0 -0.161,0.32 -0.3219,0.32 z M 29.9332,494.432 c -0.3219,2.881 -1.9314,25.127 11.2665,52.814 13.3587,27.847 41.203,41.611 45.2267,43.532 0.8047,-2.401 3.7018,-13.604 -0.161,-33.609 -3.7018,-19.045 -29.2927,-50.413 -45.7095,-60.016 -4.5066,-2.56 -8.0475,-3.521 -10.6227,-2.881 z"
         fill="#101720"
         id="path87" />
      <path
         d="m 90.448,397.127 c 0,0 0,0 -0.1609,0 -0.3219,0 -0.3219,-0.48 -0.161,-0.64 0,0 0,-0.32 0.8047,-1.44 0.6438,-1.121 1.1267,-2.081 1.6095,-2.881 l 0.6438,-1.28 c 0,-0.16 0.4829,-0.32 0.6438,-0.16 0.3219,0 0.3219,0.48 0.161,0.64 l -0.6438,1.28 c -0.4829,0.8 -0.9657,1.761 -1.6095,2.881 -0.6438,1.28 -0.8048,1.44 -0.8048,1.44 0,0.16 -0.3218,0.32 -0.4828,0.32 z"
         fill="#101720"
         id="path88" />
      <path
         d="m 90.448,397.127 c 0,0 0,0 -0.1609,0 -0.3219,0 -0.3219,-0.48 -0.161,-0.64 0,0 0,-0.32 0.8047,-1.44 0.6438,-1.121 1.1267,-2.081 1.6095,-2.881 0.3219,-0.48 0.4829,-0.96 0.6438,-1.28 l 0.4829,-0.961 c 0,0 0,0 0,-0.16 0,0 0,-0.16 0.1609,-0.32 0,-0.16 0,-0.32 0.161,-0.32 0,0 0,-0.16 0.1609,-0.32 0,0 0,0 0,-0.16 0,-0.16 0.161,-0.32 0.3219,-0.48 v -0.16 c 0.161,-0.16 0.4829,-0.16 0.6438,0 0.161,0.16 0.161,0.48 0,0.64 v 0.32 0.16 0.32 c 0,0 0,0.32 -0.3219,0.48 0,0.16 -0.1609,0.32 -0.3219,0.64 v 0.161 l -0.6438,1.12 c -0.1609,0.32 -0.4828,0.8 -0.6438,1.28 -0.4828,0.8 -0.9657,1.761 -1.6095,2.881 -0.6437,1.28 -0.8047,1.44 -0.8047,1.44 0,0.16 -0.3219,0.32 -0.4828,0.32 z"
         fill="#101720"
         id="path89" />
      <path
         d="M 23.0107,362.558 C 84.8152,288.779 107.992,257.411 156.76,250.689 c 48.767,-6.722 110.733,29.608 110.733,29.608 l 43.295,-61.456 c 0,0 25.752,6.722 41.042,17.924 0,0 -32.512,73.78 -59.551,96.186 -27.04,22.405 -55.045,4.961 -55.045,4.961 l 9.979,58.735 H 90.6094 l 4.8285,-37.77 -33.6384,41.131 -38.6278,-37.45 z"
         fill="#f8f4f0"
         id="path90" />
      <g
         mask="url(#f)"
         id="g91">
        <path
           d="m 26.7108,381.283 c 0,0 71.7834,-97.785 92.8682,-112.509 21.084,-14.564 78.221,-9.122 105.904,2.401 27.683,11.523 33.639,13.923 33.478,16.644 -0.161,2.721 -2.576,8.642 -2.576,8.642 0,0 6.116,1.601 12.393,-5.761 6.277,-7.202 47.802,-73.94 47.802,-73.94 l -59.551,-13.763 -193.2999,43.051 -78.2213,95.865 41.364,39.05 z"
           fill="#8fdce8"
           id="path91" />
      </g>
      <path
         d="m 61.6369,400.488 h -0.3218 l -38.6279,-37.45 c -0.1609,-0.16 -0.1609,-0.48 0,-0.64 4.1847,-4.961 8.0475,-9.602 11.9103,-14.244 52.4694,-62.736 76.4505,-91.543 122.1605,-97.785 25.43,-3.521 54.24,4.801 73.876,12.323 19.474,7.522 34.121,15.684 36.696,17.125 l 42.973,-61.136 c 0,-0.16 0.322,-0.16 0.483,-0.16 0.322,0 26.074,6.882 41.203,17.924 0.161,0 0.161,0.321 0.161,0.641 0,0.16 -8.208,18.724 -19.636,39.69 -10.461,19.365 -26.073,44.972 -40.076,56.655 -24.303,20.005 -49.733,8.322 -54.723,5.601 l 9.818,57.775 v 0.32 c 0,0 -0.161,0.16 -0.322,0.16 H 90.6078 c 0,0 -0.3219,0 -0.3219,-0.16 0,0 0,-0.16 0,-0.32 l 4.5066,-36.169 -32.5118,39.85 c 0,0 -0.1609,0.16 -0.3219,0.16 z m -37.984,-37.93 37.984,36.81 33.3165,-40.811 c 0,-0.16 0.3219,-0.16 0.4829,0 0.1609,0 0.3219,0.32 0.3219,0.48 l -4.6675,37.29 H 246.729 l -9.818,-58.095 c 0,-0.16 0,-0.32 0.161,-0.48 0.161,-0.16 0.321,0 0.482,0 0.322,0.16 28.167,16.804 54.562,-4.962 25.591,-21.285 56.815,-90.103 59.23,-95.704 -14.164,-10.243 -37.18,-16.645 -40.238,-17.445 l -43.134,61.136 c 0,0.16 -0.483,0.32 -0.644,0 -0.161,0 -15.773,-9.122 -37.018,-17.285 -19.636,-7.522 -48.285,-15.684 -73.393,-12.323 -45.388,6.242 -67.7597,32.969 -121.6777,97.466 -3.7019,4.481 -7.5646,9.122 -11.5884,13.923 z"
         fill="#101720"
         id="path92" />
      <path
         d="m 310.787,218.841 c 5.955,-9.282 2.414,-20.645 14.003,-20.165 0,0 4.184,-6.722 7.886,-8.803 3.702,-2.08 7.243,-0.48 7.887,3.041 0,0 3.702,-1.76 6.599,0.32 2.897,2.081 2.736,4.481 2.736,4.481 0,0 4.989,-0.48 7.082,2.721 2.092,3.201 0.804,5.121 0.804,5.121 0,0 6.438,-0.32 6.277,6.242 -0.322,6.562 -12.232,24.967 -12.232,24.967 z"
         fill="#ff7e6d"
         id="path93" />
      <g
         fill="#008fb1"
         mask="url(#g)"
         id="g98">
        <path
           d="m 325.915,197.075 c 0,0 -8.369,11.683 -6.599,15.844 1.61,4.161 36.697,22.886 36.697,22.886 l -3.219,4.641 -46.032,-21.605 2.576,-15.684 8.369,-8.162 z"
           id="path94" />
        <path
           d="m 333.48,188.433 c 3.863,0 4.507,2.561 4.185,4.161 -0.322,1.6 -1.609,4.481 -0.966,4.961 0.644,0.48 1.932,-1.76 2.576,-2.88 0.643,-1.121 2.092,-3.841 2.092,-3.841 l -0.966,-3.681 -5.15,-0.641 -1.771,1.761 z"
           id="path95" />
        <path
           d="m 345.391,192.594 c 1.771,0.64 2.736,3.361 2.254,4.961 -0.483,1.601 -1.449,4.001 -0.644,4.642 0.804,0.64 2.897,-3.841 3.702,-5.762 0.804,-1.92 -0.805,-4.801 -0.805,-4.801 l -2.897,-1.28 -1.771,2.4 z"
           id="path96" />
        <path
           d="m 354.242,198.356 c 2.092,1.76 2.253,5.441 1.61,6.561 -0.644,1.121 -2.093,5.122 -1.127,5.602 0.966,0.48 2.575,-4.161 2.575,-4.161 l 1.771,-3.681 -1.288,-5.602 -3.541,1.12"
           id="path97" />
        <path
           d="m 359.715,205.878 c 1.931,2.08 1.931,3.36 1.609,7.521 -0.322,4.162 -2.736,9.443 -0.322,10.243 2.415,0.8 6.921,-11.043 6.921,-11.043 l -3.058,-8.322 z"
           id="path98" />
      </g>
      <g
         fill="#101720"
         id="g110">
        <path
           d="m 318.03,209.558 c 0,0 -0.161,0 -0.322,0 -0.161,0 -0.322,-0.48 0,-0.64 l 6.76,-10.402 c 0,-0.16 0.483,-0.32 0.644,0 0.161,0 0.322,0.48 0,0.64 l -6.76,10.402 c 0,0 -0.161,0.161 -0.322,0.161 z"
           id="path99" />
        <path
           d="m 338.149,197.555 h -0.161 c -0.16,0 -0.321,-0.48 -0.16,-0.64 l 2.414,-4.161 c 0,-0.16 0.483,-0.32 0.644,-0.16 0.161,0 0.321,0.48 0.161,0.64 l -2.415,4.161 c 0,0.16 -0.322,0.16 -0.483,0.16 z"
           id="path100" />
        <path
           d="m 347.968,201.876 c 0,0 0,0 -0.161,0 -0.161,0 -0.322,-0.48 -0.161,-0.64 l 1.931,-3.841 c 0,-0.16 0.483,-0.32 0.644,-0.16 0.161,0 0.322,0.48 0.161,0.64 l -1.931,3.841 c 0,0.16 -0.322,0.32 -0.483,0.32 z"
           id="path101" />
        <path
           d="m 355.853,210.039 c 0,0 0,0 -0.161,0 -0.16,0 -0.321,-0.321 -0.16,-0.641 l 1.931,-4.161 c 0,-0.16 0.322,-0.32 0.644,-0.16 0.322,0.16 0.322,0.32 0.161,0.64 l -1.932,4.162 c 0,0.16 -0.322,0.32 -0.483,0.32 z"
           id="path102" />
        <path
           d="m 312.719,215.16 c 15.933,8.162 39.11,21.606 39.11,21.606 L 310.787,218.841 312.719,215 Z"
           id="path103" />
        <path
           d="m 351.831,237.246 c 0,0 0,0 -0.161,0 l -41.042,-17.925 c 0,0 -0.161,-0.16 -0.322,-0.32 v -0.32 l 1.931,-3.841 c 0,0 0.161,-0.16 0.322,-0.16 h 0.322 c 15.773,8.162 38.789,21.446 39.11,21.606 0.161,0 0.322,0.32 0.161,0.64 0,0.16 -0.321,0.32 -0.482,0.32 z m -40.399,-18.565 32.512,14.244 c -8.047,-4.642 -20.923,-11.843 -31.063,-17.125 z"
           id="path104" />
        <path
           d="m 351.831,237.246 c 0,0 0,0 -0.161,0 l -41.042,-17.925 c 0,0 -0.161,-0.16 -0.322,-0.32 v -0.32 c 2.092,-3.201 3.058,-6.722 3.862,-9.923 1.449,-5.761 2.737,-10.562 10.301,-10.562 0.805,-1.281 4.507,-6.882 7.887,-8.803 1.931,-1.12 4.023,-1.28 5.633,-0.48 1.288,0.64 2.253,1.761 2.736,3.361 1.127,-0.48 4.185,-1.28 6.599,0.48 2.253,1.601 2.897,3.521 2.897,4.481 1.449,0 5.15,0.16 7.082,3.041 1.448,2.241 1.448,4.001 1.126,4.961 0.966,0 2.898,0.481 4.346,1.761 1.127,1.12 1.771,2.881 1.61,4.961 -0.322,6.562 -11.75,24.487 -12.233,25.127 0,0 -0.161,0.16 -0.321,0.16 z m -40.238,-18.565 40.077,17.444 c 1.609,-2.56 11.588,-18.404 11.91,-24.326 0,-1.76 -0.322,-3.201 -1.449,-4.161 -1.609,-1.6 -4.345,-1.6 -4.345,-1.6 -0.161,0 -0.322,0 -0.483,-0.16 0,-0.16 0,-0.32 0,-0.48 0,0 0.966,-1.761 -0.805,-4.642 -1.931,-2.88 -6.599,-2.56 -6.599,-2.56 h -0.322 c 0,0 -0.161,-0.16 0,-0.32 0,0 0,-2.241 -2.575,-4.162 -2.575,-1.92 -6.116,-0.32 -6.116,-0.16 0,0 -0.322,0 -0.483,0 0,0 -0.161,-0.16 -0.322,-0.32 -0.322,-1.44 -1.126,-2.56 -2.414,-3.2 -1.449,-0.641 -3.058,-0.481 -4.828,0.48 -3.541,1.92 -7.726,8.642 -7.726,8.642 0,0 -0.161,0.16 -0.483,0.16 -7.082,-0.32 -8.047,4.001 -9.657,9.762 -0.805,3.041 -1.609,6.562 -3.702,9.763 z"
           id="path105" />
        <path
           d="m 238.522,345.914 -21.567,-22.566 c 5.472,5.441 12.232,10.403 20.28,14.564 z"
           id="path106" />
        <path
           d="m 238.521,346.394 h -0.322 l -21.568,-22.566 c -0.16,-0.16 -0.16,-0.48 0,-0.64 0.161,-0.16 0.483,-0.16 0.644,0 5.473,5.441 12.393,10.563 20.119,14.564 0,0 0.161,0.16 0.322,0.32 l 1.287,8.002 c 0,0.16 0,0.48 -0.322,0.48 0,0 0,0 -0.16,0 z m -14.164,-15.844 13.359,13.924 -0.966,-6.242 c -4.346,-2.241 -8.53,-4.961 -12.232,-7.682 z"
           id="path107" />
        <path
           d="m 216.794,323.828 c 0,0 -0.16,0 -0.321,0 -0.644,-0.64 -1.288,-1.28 -1.932,-1.92 l -0.322,-0.32 c -7.242,-8.002 -11.266,-16.805 -11.427,-24.647 0,-0.32 0.161,-0.48 0.483,-0.48 0.322,0 0.483,0.16 0.483,0.48 0,7.842 4.184,16.484 11.427,24.487 l 1.931,1.92 c 0.161,0.16 0.161,0.48 0,0.64 -0.161,0.16 -0.161,0 -0.322,0 z"
           id="path108" />
        <path
           d="M 101.072,322.548 86.5869,369.44 95.2782,358.877 C 101.233,319.187 107.51,286.218 107.51,286.218"
           id="path109" />
        <path
           d="m 86.5864,369.76 c 0,0 0,0 -0.161,0 -0.1609,0 -0.3219,-0.32 -0.3219,-0.64 l 14.4855,-46.892 c 3.541,-21.286 6.438,-36.01 6.438,-36.17 0,-0.32 0.322,-0.48 0.644,-0.32 0.322,0 0.483,0.32 0.322,0.64 0,0.321 -6.438,33.449 -12.2325,72.499 v 0.16 L 87.0692,369.6 c 0,0 -0.1609,0.16 -0.3219,0.16 z m 12.715,-40.17 -11.5884,37.61 6.9208,-8.483 c 1.4486,-10.242 3.0581,-20.165 4.5066,-28.967 z"
           id="path110" />
      </g>
      <path
         d="m 61.6387,400.008 c 0,0 -13.6807,20.965 -18.5092,22.406 -4.8285,1.6 -5.4723,-10.403 -5.4723,-10.403 0,0 -18.6701,23.686 -22.5329,25.927 -3.8628,2.24 -8.20838,-2.401 -7.24269,-5.922 0,0 -6.59891,6.722 -10.13979,3.681 -3.54089,-3.041 -0.80475,-10.082 -0.80475,-10.082 0,0 -5.95512,5.121 -9.17407,1.76 -3.219,-3.361 -0.4829,-8.802 -0.4829,-8.802 0,0 -5.1504,0.96 -6.1161,-4.481 -0.9656,-5.442 16.89971,-21.446 42.0078,-51.374 l 38.6278,37.45 z"
         fill="#ff7e6d"
         id="path111" />
      <g
         fill="#008fb1"
         mask="url(#h)"
         id="g115">
        <path
           d="m 13.678,371.2 c 9.8179,-2.08 22.8548,8.643 28.8099,17.925 5.9552,9.283 -0.6438,17.765 -5.6332,15.204 -4.9894,-2.561 -10.3007,-6.882 -9.9788,-4.161 0.3219,2.561 5.1503,11.683 4.1846,14.564 -0.9657,2.881 -18.0263,23.206 -21.56715,22.246 -3.37994,-0.961 1.93135,7.361 1.93135,7.361 l 34.4432,-5.761 13.3588,-19.525 5.6332,-25.287 -14.6464,-20.325 -28.649,-15.844 -7.5646,13.443 z"
           id="path112" />
        <path
           d="m 20.4369,415.532 c 0,0 2.0923,-2.721 0.3219,-3.361 -1.7705,-0.64 -10.78363,12.323 -14.48546,16.644 -3.70183,4.322 -9.8179,7.042 -12.87594,5.762 -2.89708,-1.12 7.242717,4.961 7.242717,4.961 L 7.07809,433.137 20.2759,415.532"
           id="path113" />
        <path
           d="m 10.6184,407.69 c 0.4829,-1.6 0.6438,-3.041 -0.4828,-3.201 -1.12665,-0.16 -7.56462,9.763 -11.105505,13.924 -3.540885,4.161 -8.691255,8.962 -11.266495,7.042 -2.4142,-1.921 -1.9313,4.961 -1.9313,4.961 l 4.50654,1.6 5.95512,-5.601 14.32444,-18.565"
           id="path114" />
        <path
           d="m 2.57243,399.688 c 0.80475,-1.441 -0.3219,-1.921 -1.12665,-1.601 -0.804745,0.321 -9.8179,11.363 -14.00258,14.724 -4.1847,3.361 -6.277,4.161 -8.0475,2.721 -1.7704,-1.44 1.4486,4.961 1.4486,4.961 h 3.7018 l 1.9314,-1.76 z"
           id="path115" />
      </g>
      <path
         d="m 12.8712,438.898 c -1.1266,0 -2.2533,-0.32 -3.21895,-1.12 -1.44854,-1.12 -2.41424,-2.881 -2.57518,-4.641 -2.09234,1.76 -6.75987,5.281 -9.81791,2.72 -2.73613,-2.4 -2.09234,-6.881 -1.44854,-9.282 -1.93139,1.44 -6.11602,3.521 -8.69122,0.8 -2.7362,-2.881 -1.6095,-6.882 -0.9657,-8.482 -0.8048,0 -2.2533,0 -3.5409,-0.96 -1.2876,-0.801 -1.9314,-2.241 -2.2533,-4.001 -0.6438,-3.681 5.9551,-10.883 17.86536,-24.007 6.75986,-7.362 14.96824,-16.644 24.30334,-27.687 0,0 0.1609,-0.16 0.3219,-0.16 h 0.3219 l 38.6278,37.45 c 0,0.16 0.1609,0.48 0,0.64 -0.4829,0.8 -13.8416,21.126 -18.8311,22.726 -0.9657,0.32 -1.7704,0.16 -2.5751,-0.32 -2.4143,-1.601 -3.0581,-6.882 -3.38,-9.283 -3.5409,4.482 -18.3482,23.046 -21.8891,24.967 -0.8047,0.48 -1.6095,0.64 -2.4142,0.64 z m -4.98939,-7.522 h 0.32191 c 0.16095,0 0.32189,0.32 0.16094,0.48 -0.48284,1.601 0.3219,3.681 1.93134,4.962 1.4486,1.12 3.0581,1.28 4.5066,0.48 3.7019,-2.241 22.211,-25.447 22.372,-25.767 0,-0.16 0.3219,-0.16 0.4828,-0.16 0.161,0 0.3219,0.16 0.3219,0.48 0,2.241 0.8048,8.162 3.058,9.763 0.4829,0.32 1.1267,0.48 1.7705,0.16 3.7018,-1.121 13.3588,-14.724 18.0263,-21.926 l -37.984,-36.81 c -9.1741,10.883 -17.38252,20.006 -23.98144,27.367 -10.94456,12.004 -18.18726,20.006 -17.54346,23.206 0.3219,1.441 0.9657,2.561 1.9314,3.361 1.6095,1.121 3.7018,0.801 3.7018,0.801 0.161,0 0.3219,0 0.4829,0.16 0.1609,0.16 0,0.32 0,0.48 0,0 -2.4143,5.121 0.4828,8.162 2.8971,3.041 8.53032,-1.761 8.53032,-1.761 0,0 0.3219,-0.16 0.6438,0 0.16095,0 0.32189,0.32 0.16094,0.641 0,0 -2.41423,6.881 0.6438,9.602 3.058039,2.721 9.33505,-3.521 9.33505,-3.521 h 0.32191 z"
         fill="#101720"
         id="path116" />
      <path
         d="m -12.8809,418.893 c 0,0 -0.161,0 -0.3219,0 -0.161,-0.16 -0.3219,-0.48 0,-0.64 L 2.73115,399.048 c 0.16095,-0.16 0.48285,-0.16 0.6438,0 0.16095,0.16 0.3219,0.48 0,0.64 l -15.93395,19.205 -0.3219,0.16 z"
         fill="#101720"
         id="path117" />
      <path
         d="m -3.06232,425.775 c 0,0 -0.16095,0 -0.3219,0 -0.16095,-0.16 -0.3219,-0.481 0,-0.641 L 10.9403,406.73 c 0,-0.16 0.4828,-0.16 0.6438,0 0.1609,0.16 0.3219,0.48 0,0.64 l -14.32452,18.405 -0.3219,0.16 z"
         fill="#101720"
         id="path118" />
      <path
         d="m 7.88067,432.336 c 0,0 -0.16095,0 -0.3219,0 -0.16095,-0.16 -0.3219,-0.48 0,-0.64 L 21.0785,414.252 c 0,-0.16 0.4828,-0.32 0.6438,0 0.1609,0.16 0.3219,0.48 0,0.64 l -13.51973,17.444 -0.3219,0.16 z"
         fill="#101720"
         id="path119" />
      <path
         d="m 37.6566,412.491 c 0,0 -0.161,0 -0.3219,0 L 20.9178,398.088 c -0.1609,-0.161 -0.1609,-0.481 0,-0.641 0.161,-0.16 0.4829,-0.16 0.6438,0 l 16.4169,14.404 c 0.1609,0.16 0.1609,0.48 0,0.64 0,0 -0.161,0.16 -0.3219,0.16 z"
         fill="#101720"
         id="path120" />
      <path
         d="m 19.6318,366.399 42.0078,33.609 -38.6278,-37.45 z"
         fill="#101720"
         id="path121" />
      <path
         d="m 61.6373,400.488 c 0,0 -0.161,0 -0.3219,0 L 19.4686,366.879 c 0,0 0,-0.16 -0.161,-0.32 -0.1609,-0.16 0,-0.32 0,-0.32 l 3.219,-3.841 c 0,0 0.161,-0.16 0.3219,-0.16 h 0.3219 l 38.6278,37.45 c 0.161,0.16 0.161,0.48 0,0.64 0,0 -0.1609,0.16 -0.3219,0.16 z m -41.203,-34.089 33.4774,26.887 -30.9022,-29.928 z"
         fill="#101720"
         id="path122" />
      <path
         d="m 49.2443,518.759 c 1.9314,1.76 4.1847,4.001 6.4379,6.562 8.8522,9.762 16.2559,22.085 21.0844,34.088 l -18.6701,12.804 -9.0132,6.081 -19.9577,-20.965 -0.3219,-26.567 1.2876,-0.8 19.153,-11.363 z"
         fill="#ff7e6e"
         id="path123" />
      <path
         d="M 49.2451,578.774 H 48.9232 L 28.9654,557.809 c 0,0 0,-0.16 0,-0.32 l -0.3218,-26.567 c 0,-0.16 -10e-5,-0.32 0.3218,-0.48 L 49.406,518.439 h 0.6438 c 1.9314,1.92 4.1847,4.001 6.438,6.561 8.3693,9.123 15.9339,21.286 21.2453,34.249 0,0.16 0,0.48 -0.161,0.64 l -27.5223,19.045 c 0,0 -0.161,0 -0.3219,0 z m -19.6359,-21.765 19.6359,20.645 26.8785,-18.565 c -5.3114,-12.643 -12.715,-24.646 -20.9234,-33.608 -2.0924,-2.401 -4.1847,-4.482 -6.1161,-6.242 l -19.9577,11.843 0.3219,26.087 z"
         fill="#101720"
         id="path124" />
      <path
         d="m 36.8514,539.884 c -1.6095,7.202 -6.2771,19.205 4.0237,24.327 5.1504,2.56 9.657,4.161 13.3588,6.241 3.8628,2.081 6.9208,4.481 9.1741,8.483 2.2533,4.161 4.1847,22.245 4.0237,41.45 -0.1609,16.645 -1.9314,34.089 -6.4379,43.852 -2.7362,5.921 -5.3114,10.082 -7.5647,12.963 -5.9551,7.682 -10.1398,7.042 -10.1398,7.042 L -27.5283,553.808 c 2.2533,-3.201 7.5646,-7.842 13.8416,-12.643 11.10551,-8.322 25.5909,-16.645 32.6727,-16.965 11.1055,-0.32 19.3139,8.322 17.7044,15.524 z"
         fill="#f8f4f0"
         id="path125" />
      <path
         d="m 43.4517,684.882 h -0.3219 c 0,0 -0.3219,0 -0.3219,-0.16 L -28.0098,554.288 c 0,-0.16 0,-0.32 0,-0.48 2.0924,-3.041 7.2428,-7.682 14.0026,-12.643 11.10551,-8.322 25.5909,-16.805 32.9946,-16.965 5.9551,-0.16 11.7493,2.241 15.2902,6.402 2.5752,3.041 3.5409,6.562 2.8971,9.762 -0.161,0.961 -0.4829,1.921 -0.6438,3.041 -1.9314,7.362 -4.1847,16.485 4.5065,20.806 2.2533,1.12 4.3457,2.08 6.438,2.88 2.5752,1.121 4.9894,2.241 7.0818,3.361 4.5066,2.401 7.4037,5.122 9.335,8.643 2.4143,4.481 4.3457,23.046 4.0238,41.61 0,11.363 -1.1267,32.329 -6.5989,44.012 -2.4143,5.441 -4.9895,9.762 -7.5647,13.123 -5.3113,6.722 -9.1741,7.202 -10.1398,7.202 z M -26.8831,553.808 43.6126,683.762 c 0.9657,0 4.5066,-0.64 9.3351,-6.722 2.5752,-3.201 5.1504,-7.522 7.5646,-12.963 5.3113,-11.523 6.277,-32.169 6.438,-43.532 0.1609,-20.005 -1.9314,-37.449 -4.0237,-41.29 -1.9314,-3.361 -4.5066,-5.922 -9.0132,-8.323 -2.0924,-1.12 -4.5066,-2.24 -6.9208,-3.36 -2.0924,-0.961 -4.1847,-1.921 -6.438,-3.041 -9.335,-4.641 -6.9208,-14.564 -4.9894,-21.926 0.3219,-0.96 0.4828,-2.08 0.6438,-2.881 0.6438,-2.88 -0.3219,-6.081 -2.7362,-8.962 -3.3799,-4.001 -8.6912,-6.242 -14.4854,-6.082 -7.0818,0.32 -21.88909,8.963 -32.5117,16.805 -6.438,4.801 -11.2665,9.282 -13.5198,12.163 z"
         fill="#101720"
         id="path126" />
      <path
         d="m 26.5506,581.175 c 19.7968,35.369 37.8231,68.818 26.8785,96.185 -5.9551,7.682 -10.1398,7.042 -10.1398,7.042 L -27.5283,553.968 c 2.2533,-3.201 7.5646,-7.842 13.8416,-12.643 0,0 20.27961,4.481 40.0764,39.85 z"
         fill="#f2cdac"
         id="path127" />
      <path
         d="m 43.4517,684.882 h -0.3219 c 0,0 -0.3219,0 -0.3219,-0.16 L -28.0098,554.288 c 0,-0.16 0,-0.32 0,-0.48 2.0924,-3.041 7.2428,-7.682 14.0026,-12.643 h 0.3219 c 0.161,0 20.76247,4.961 40.3983,40.17 18.831,33.609 38.3059,68.498 26.8785,96.505 V 678 c -5.3113,6.722 -9.1741,7.202 -10.1398,7.202 z M -26.8831,553.808 43.6126,683.762 c 0.9657,0 4.5066,-0.64 9.3351,-6.722 11.1055,-27.687 -8.2084,-62.256 -26.8785,-95.705 -18.34823,-32.968 -37.3402,-39.05 -39.5935,-39.69 -6.2771,4.801 -11.1055,9.122 -13.3588,12.163 z"
         fill="#101720"
         id="path128" />
      <path
         d="m -27.5255,553.808 c 8.0474,-12.163 32.83361,10.563 52.7913,49.613 19.9577,39.05 30.4194,67.377 18.0263,80.821 C 30.7381,697.685 0.962475,639.91 -9.82112,616.224 -20.6047,592.538 -34.9292,567.252 -27.3646,553.808 Z"
         fill="#82c9d7"
         id="path129" />
      <path
         d="m 38.9443,686.803 c -0.3219,0 -0.8047,0 -1.1266,0 -17.2216,-2.721 -46.83625,-67.538 -48.1238,-70.259 -1.6095,-3.52 -3.219,-6.881 -4.8285,-10.402 -9.9789,-20.966 -19.3139,-40.811 -12.715,-52.494 1.6095,-2.401 4.0237,-3.681 6.9208,-3.521 11.7493,0.64 31.0632,22.566 46.8362,53.294 19.9577,38.89 30.5804,67.698 17.8654,81.301 -1.2876,1.441 -2.8971,2.241 -4.6675,2.241 z M -27.0449,554.128 c -6.277,11.363 3.38,31.848 12.715,51.534 1.6095,3.52 3.219,7.041 4.8285,10.402 10.62264,23.206 33.9603,67.538 47.48,69.618 1.9314,0.32 3.5409,-0.32 4.9894,-1.76 12.3931,-13.284 1.7705,-41.611 -18.0263,-80.181 -15.29015,-29.928 -34.60405,-52.174 -46.0314,-52.654 -2.5752,-0.16 -4.5066,0.961 -5.9552,3.041 z"
         fill="#101720"
         id="path130" />
      <path
         d="m 54.2367,570.452 c 3.8628,2.081 6.9208,4.482 9.1741,8.483 2.2533,4.161 4.1847,22.245 4.0238,41.45 C 56.651,616.224 53.7539,589.817 54.2367,570.452 Z"
         fill="#f2cdac"
         id="path131" />
      <path
         d="m 67.4339,620.865 c 0,0 0,0 -0.1609,0 -10.7836,-4.161 -14.0026,-29.767 -13.5198,-50.413 0,-0.16 1e-4,-0.32 0.322,-0.32 h 0.4828 c 4.5066,2.401 7.4037,5.122 9.3351,8.642 2.4142,4.482 4.3456,23.206 4.0237,41.611 0,0.16 0,0.32 -0.161,0.32 0,0 -0.1609,0 -0.3219,0 z m -12.715,-49.613 c -0.3219,19.686 2.5752,43.692 12.2322,48.333 0,-19.685 -1.9314,-36.81 -4.0237,-40.491 -1.7705,-3.2 -4.3457,-5.601 -8.2085,-7.842 z"
         fill="#101720"
         id="path132" />
      <path
         d="M 55.5238,594.939 C 44.2574,593.978 39.4289,584.536 33.9566,571.092 28.6453,557.969 10.2971,540.044 -1.7741,533.483 c -0.3219,0 -0.3219,-0.48 -0.16095,-0.64 0.16095,-0.16 0.48285,-0.321 0.6438,-0.16 12.23215,6.721 30.74125,24.806 36.21355,38.089 5.3113,13.124 9.9789,22.406 20.7625,23.206 0.3219,0 0.4828,0.321 0.4828,0.481 0,0.32 -0.1609,0.48 -0.4828,0.48 z"
         fill="#101720"
         id="path133" />
      <path
         d="m 107.509,444.82 c 11.428,-7.522 20.119,-21.606 20.119,-21.606 0,0 -18.509,11.523 -27.362,13.283"
         fill="#101720"
         id="path134" />
      <path
         d="m 107.511,445.3 c -0.161,0 -0.322,0 -0.322,-0.16 0,-0.16 0,-0.48 0,-0.64 8.691,-5.762 16.095,-15.685 18.831,-19.686 -4.99,3.041 -18.348,10.723 -25.752,12.164 -0.3219,0 -0.4828,0 -0.4828,-0.321 0,-0.32 0,-0.48 0.3218,-0.64 8.691,-1.6 27.04,-13.123 27.2,-13.123 h 0.644 c 0.161,0.16 0.161,0.32 0,0.64 0,0 -9.013,14.244 -20.279,21.766 0,0 -0.161,0 -0.322,0 z"
         fill="#101720"
         id="path135" />
    </g>
  </g>
</svg>
